<svg width="242" height="146" viewBox="0 0 242 146" fill="none" xmlns="http://www.w3.org/2000/svg">
<path d="M30.7393 107.483H15.3697V130.593H30.7393V107.483ZM69.1635 76.6693H53.7939V130.593H69.1635V76.6693ZM107.588 38.1523V130.593H92.2181V38.1523H107.588ZM92.2181 30.4489C90.1799 30.4489 88.2252 31.2605 86.7841 32.7051C85.3429 34.1498 84.5332 36.1092 84.5332 38.1523V130.593C84.5332 132.636 85.3429 134.596 86.7841 136.04C88.2252 137.485 90.1799 138.296 92.2181 138.296H107.588C109.626 138.296 111.581 137.485 113.022 136.04C114.463 134.596 115.273 132.636 115.273 130.593V38.1523C115.273 36.1092 114.463 34.1498 113.022 32.7051C111.581 31.2605 109.626 30.4489 107.588 30.4489H92.2181ZM46.109 76.6693C46.109 74.6262 46.9187 72.6668 48.3599 71.2221C49.801 69.7775 51.7557 68.9659 53.7939 68.9659H69.1635C71.2017 68.9659 73.1563 69.7775 74.5975 71.2221C76.0387 72.6668 76.8484 74.6262 76.8484 76.6693V130.593C76.8484 132.636 76.0387 134.596 74.5975 136.04C73.1563 137.485 71.2017 138.296 69.1635 138.296H53.7939C51.7557 138.296 49.801 137.485 48.3599 136.04C46.9187 134.596 46.109 132.636 46.109 130.593V76.6693ZM7.68481 107.483C7.68481 105.44 8.49446 103.48 9.93565 102.036C11.3768 100.591 13.3315 99.7795 15.3697 99.7795H30.7393C32.7775 99.7795 34.7321 100.591 36.1733 102.036C37.6145 103.48 38.4242 105.44 38.4242 107.483V130.593C38.4242 132.636 37.6145 134.596 36.1733 136.04C34.7321 137.485 32.7775 138.296 30.7393 138.296H15.3697C13.3315 138.296 11.3768 137.485 9.93565 136.04C8.49446 134.596 7.68481 132.636 7.68481 130.593V107.483Z" fill="#FACFCE"/>
<g clip-path="url(#clip0_17_407)">
<path fill-rule="evenodd" clip-rule="evenodd" d="M151.565 51.8019C150.423 51.8019 149.327 52.2567 148.52 53.0663C147.712 53.8758 147.259 54.9738 147.259 56.1187V90.6533C147.259 91.7982 147.712 92.8962 148.52 93.7058C149.327 94.5153 150.423 94.9701 151.565 94.9701C152.707 94.9701 153.802 94.5153 154.61 93.7058C155.418 92.8962 155.871 91.7982 155.871 90.6533V77.7028H158.395L175.621 94.9701L165.742 104.864C164.933 105.675 164.479 106.774 164.479 107.921C164.479 109.067 164.933 110.166 165.742 110.977C166.55 111.788 167.647 112.243 168.791 112.243C169.934 112.243 171.031 111.788 171.84 110.977L181.71 101.074L191.58 110.977C192.389 111.788 193.486 112.243 194.629 112.243C195.773 112.243 196.87 111.788 197.678 110.977C198.487 110.166 198.941 109.067 198.941 107.921C198.941 106.774 198.487 105.675 197.678 104.864L187.799 94.9701L197.678 85.076C198.487 84.2654 198.941 83.166 198.941 82.0197C198.941 80.8733 198.487 79.7739 197.678 78.9634C196.87 78.1528 195.773 77.6974 194.629 77.6974C193.486 77.6974 192.389 78.1528 191.58 78.9634L181.71 88.8662L170.47 77.5906C173.719 77.159 176.684 75.5055 178.762 72.9651C180.841 70.4247 181.878 67.1873 181.665 63.9087C181.451 60.6301 180.003 57.5554 177.612 55.3074C175.222 53.0595 172.068 51.8064 168.791 51.8019H151.565ZM155.871 60.4355V69.0692H168.791C169.933 69.0692 171.028 68.6144 171.836 67.8048C172.643 66.9953 173.097 65.8973 173.097 64.7524C173.097 63.6075 172.643 62.5095 171.836 61.6999C171.028 60.8903 169.933 60.4355 168.791 60.4355H155.871Z" fill="#008F8C"/>
<path fill-rule="evenodd" clip-rule="evenodd" d="M121.42 8.63365C121.42 6.34387 122.327 4.14786 123.943 2.52874C125.558 0.909615 127.748 0 130.033 0L216.161 0C218.446 0 220.636 0.909615 222.251 2.52874C223.867 4.14786 224.774 6.34387 224.774 8.63365V25.901C224.774 28.1907 223.867 30.3868 222.251 32.0059C220.636 33.625 218.446 34.5346 216.161 34.5346V125.188C216.161 128.623 214.8 131.917 212.377 134.345C209.954 136.774 206.668 138.138 203.242 138.138H142.952C139.526 138.138 136.24 136.774 133.817 134.345C131.394 131.917 130.033 128.623 130.033 125.188V34.5346C127.748 34.5346 125.558 33.625 123.943 32.0059C122.327 30.3868 121.42 28.1907 121.42 25.901V8.63365ZM138.646 34.5346H207.548V125.188C207.548 126.333 207.095 127.431 206.287 128.24C205.479 129.05 204.384 129.505 203.242 129.505H142.952C141.81 129.505 140.715 129.05 139.907 128.24C139.099 127.431 138.646 126.333 138.646 125.188V34.5346ZM130.033 25.901V8.63365H216.161V25.901H130.033Z" fill="#008F8C"/>
</g>
<defs>
<clipPath id="clip0_17_407">
<rect width="137.806" height="138.138" fill="white" transform="translate(104.194)"/>
</clipPath>
</defs>
</svg>
