<svg width="406" height="357" viewBox="0 0 406 357" fill="none" xmlns="http://www.w3.org/2000/svg">
<circle cx="230.5" cy="181.5" r="175.5" fill="#D9D9D9"/>
<path d="M26.4205 299V80.8182H102.699C117.898 80.8182 130.433 83.446 140.305 88.7017C150.178 93.8864 157.528 100.882 162.358 109.689C167.188 118.425 169.602 128.119 169.602 138.773C169.602 148.148 167.933 155.889 164.595 161.997C161.328 168.105 156.996 172.935 151.598 176.486C146.271 180.037 140.483 182.665 134.233 184.369V186.5C140.909 186.926 147.621 189.27 154.368 193.531C161.115 197.793 166.761 203.901 171.307 211.855C175.852 219.81 178.125 229.54 178.125 241.045C178.125 251.983 175.639 261.82 170.668 270.555C165.696 279.291 157.848 286.216 147.124 291.33C136.399 296.443 122.443 299 105.256 299H26.4205ZM52.8409 275.562H105.256C122.514 275.562 134.766 272.224 142.01 265.548C149.325 258.801 152.983 250.634 152.983 241.045C152.983 233.659 151.101 226.841 147.337 220.591C143.572 214.27 138.21 209.227 131.25 205.463C124.29 201.628 116.051 199.71 106.534 199.71H52.8409V275.562ZM52.8409 176.699H101.847C109.801 176.699 116.974 175.136 123.366 172.011C129.83 168.886 134.943 164.483 138.707 158.801C142.543 153.119 144.46 146.443 144.46 138.773C144.46 129.185 141.122 121.053 134.446 114.376C127.77 107.629 117.188 104.256 102.699 104.256H52.8409V176.699ZM221.538 299V80.8182H295.259C312.305 80.8182 326.296 83.7301 337.234 89.554C348.171 95.3068 356.268 103.226 361.523 113.311C366.779 123.396 369.407 134.866 369.407 147.722C369.407 160.577 366.779 171.976 361.523 181.919C356.268 191.862 348.207 199.675 337.34 205.357C326.474 210.967 312.589 213.773 295.685 213.773H236.026V189.909H294.833C306.481 189.909 315.856 188.205 322.958 184.795C330.131 181.386 335.316 176.557 338.512 170.307C341.779 163.986 343.413 156.457 343.413 147.722C343.413 138.986 341.779 131.351 338.512 124.817C335.245 118.283 330.025 113.24 322.852 109.689C315.678 106.067 306.197 104.256 294.407 104.256H247.958V299H221.538ZM324.237 200.989L377.93 299H347.248L294.407 200.989H324.237Z" fill="black"/>
<path d="M44.4205 291V72.8182H120.699C135.898 72.8182 148.433 75.446 158.305 80.7017C168.178 85.8864 175.528 92.8821 180.358 101.689C185.188 110.425 187.602 120.119 187.602 130.773C187.602 140.148 185.933 147.889 182.595 153.997C179.328 160.105 174.996 164.935 169.598 168.486C164.271 172.037 158.483 174.665 152.233 176.369V178.5C158.909 178.926 165.621 181.27 172.368 185.531C179.115 189.793 184.761 195.901 189.307 203.855C193.852 211.81 196.125 221.54 196.125 233.045C196.125 243.983 193.639 253.82 188.668 262.555C183.696 271.291 175.848 278.216 165.124 283.33C154.399 288.443 140.443 291 123.256 291H44.4205ZM70.8409 267.562H123.256C140.514 267.562 152.766 264.224 160.01 257.548C167.325 250.801 170.983 242.634 170.983 233.045C170.983 225.659 169.101 218.841 165.337 212.591C161.572 206.27 156.21 201.227 149.25 197.463C142.29 193.628 134.051 191.71 124.534 191.71H70.8409V267.562ZM70.8409 168.699H119.847C127.801 168.699 134.974 167.136 141.366 164.011C147.83 160.886 152.943 156.483 156.707 150.801C160.543 145.119 162.46 138.443 162.46 130.773C162.46 121.185 159.122 113.053 152.446 106.376C145.77 99.6293 135.188 96.2557 120.699 96.2557H70.8409V168.699Z" fill="#5D5979"/>
<path d="M239.538 291V72.8182H313.259C330.305 72.8182 344.296 75.7301 355.234 81.554C366.171 87.3068 374.268 95.2258 379.523 105.311C384.779 115.396 387.407 126.866 387.407 139.722C387.407 152.577 384.779 163.976 379.523 173.919C374.268 183.862 366.207 191.675 355.34 197.357C344.474 202.967 330.589 205.773 313.685 205.773H254.026V181.909H312.833C324.481 181.909 333.856 180.205 340.958 176.795C348.131 173.386 353.316 168.557 356.512 162.307C359.779 155.986 361.413 148.457 361.413 139.722C361.413 130.986 359.779 123.351 356.512 116.817C353.245 110.283 348.025 105.24 340.852 101.689C333.678 98.0668 324.197 96.2557 312.407 96.2557H265.958V291H239.538ZM342.237 192.989L395.93 291H365.248L312.407 192.989H342.237Z" fill="#FFBAAD"/>
</svg>
